<?xml version="1.0" standalone="no"?>
<!DOCTYPE svg PUBLIC "-//W3C//DTD SVG 20010904//EN"
 "http://www.w3.org/TR/2001/REC-SVG-20010904/DTD/svg10.dtd">
<svg version="1.0" xmlns="http://www.w3.org/2000/svg"
 width="640.000000pt" height="640.000000pt" viewBox="0 0 640.000000 640.000000"
 preserveAspectRatio="xMidYMid meet">
<metadata>
Created by potrace 1.14, written by Peter Selinger 2001-2017
</metadata>
<g transform="translate(0.000000,640.000000) scale(0.100000,-0.100000)"
fill="#000000" stroke="none">
<path d="M3035 5455 c-46 -11 -1366 -414 -2796 -855 -173 -54 -239 -123 -239
-251 0 -78 23 -132 75 -177 46 -41 40 -39 329 -127 131 -41 240 -75 242 -77 2
-2 -15 -31 -36 -63 -68 -102 -130 -283 -130 -380 0 -14 -4 -25 -8 -25 -5 0
-30 -21 -56 -46 -64 -61 -97 -134 -97 -218 -1 -100 23 -157 98 -237 l35 -36
-131 -589 c-119 -534 -130 -593 -120 -629 14 -49 74 -110 119 -119 18 -3 166
-6 329 -6 266 0 300 2 337 19 48 22 80 59 94 110 8 31 -8 114 -121 625 l-131
589 35 36 c75 80 99 137 98 237 -1 98 -49 190 -130 246 -24 17 -24 19 -14 77
17 87 60 168 128 238 l60 62 65 -20 c799 -249 1943 -595 2000 -605 95 -17 165
-17 260 0 57 10 2559 771 2887 878 121 40 182 120 183 238 0 88 -41 160 -115
201 -51 28 -2842 890 -2944 909 -74 14 -234 11 -306 -5z m-1065 -525 c52 -52
-14 -125 -81 -90 -24 13 -26 72 -3 94 21 22 60 20 84 -4z m1207 -238 c86 -44
134 -139 137 -271 l1 -66 -224 -3 -224 -2 6 -40 c7 -56 37 -109 81 -144 31
-26 48 -31 105 -34 74 -4 113 9 164 56 l27 26 27 -27 27 -27 -33 -34 c-83 -85
-229 -106 -349 -49 -54 26 -109 88 -132 149 -29 78 -28 222 1 300 33 87 105
158 189 185 43 14 152 4 197 -19z m662 18 c19 -5 50 -24 68 -42 55 -54 63 -99
63 -370 l0 -238 -49 0 -50 0 -3 243 c-3 263 -8 286 -59 313 -16 8 -51 14 -80
14 -61 0 -114 -27 -147 -74 -21 -31 -22 -41 -22 -264 l0 -232 -50 0 -50 0 0
325 0 325 50 0 50 0 0 -40 c0 -22 5 -40 10 -40 6 0 10 4 10 9 0 14 57 52 99
67 44 16 114 18 160 4z m696 -1 c49 -14 97 -63 113 -116 8 -27 12 -124 12
-287 l0 -246 -50 0 -50 0 0 235 c0 253 -5 287 -51 319 -30 20 -129 21 -168 1
-16 -8 -40 -28 -55 -45 l-26 -32 0 -239 0 -239 -55 0 -55 0 0 325 0 325 50 0
50 0 0 -40 c0 -22 3 -40 6 -40 3 0 23 14 44 32 65 55 147 71 235 47z m-2557
-406 c-3 -387 -4 -410 -23 -442 -29 -49 -78 -72 -145 -69 l-55 3 -3 41 -3 41
41 0 c29 0 48 7 63 22 22 21 22 27 25 416 l3 395 50 0 50 0 -3 -407z m662 372
c0 -30 -27 -71 -186 -283 l-185 -247 195 -3 196 -2 0 -40 0 -40 -260 0 -260 0
0 36 c0 30 25 69 181 276 115 152 178 243 172 249 -6 6 -80 9 -176 7 l-167 -3
0 43 0 42 245 0 245 0 0 -35z"/>
<path d="M3005 4633 c-57 -15 -110 -82 -129 -165 l-6 -28 170 0 170 0 0 38 c0
43 -34 107 -70 134 -26 19 -100 31 -135 21z"/>
<path d="M1415 3387 c-11 -53 -136 -1087 -136 -1128 0 -235 404 -455 1033
-564 980 -169 2165 -33 2635 301 114 81 172 169 173 259 0 57 -128 1112 -138
1136 -6 13 -117 -18 -762 -216 -415 -128 -786 -238 -825 -246 -92 -18 -318
-16 -410 4 -53 12 -1397 420 -1537 467 -24 8 -29 6 -33 -13z"/>
</g>
</svg>
