<?xml version="1.0" encoding="UTF-8" standalone="no"?>
<svg
   viewBox="0 0 640 512"
   version="1.1"
   id="svg4"
   sodipodi:docname="graduation-cap-solid.svg"
   inkscape:version="1.2.2 (b0a84865, 2022-12-01)"
   xmlns:inkscape="http://www.inkscape.org/namespaces/inkscape"
   xmlns:sodipodi="http://sodipodi.sourceforge.net/DTD/sodipodi-0.dtd"
   xmlns="http://www.w3.org/2000/svg"
   xmlns:svg="http://www.w3.org/2000/svg">
  <defs
     id="defs8" />
  <sodipodi:namedview
     id="namedview6"
     pagecolor="#ffffff"
     bordercolor="#000000"
     borderopacity="0.25"
     inkscape:showpageshadow="2"
     inkscape:pageopacity="0.0"
     inkscape:pagecheckerboard="0"
     inkscape:deskcolor="#d1d1d1"
     showgrid="false"
     inkscape:zoom="0.80680957"
     inkscape:cx="263.38309"
     inkscape:cy="347.66568"
     inkscape:window-width="1290"
     inkscape:window-height="819"
     inkscape:window-x="222"
     inkscape:window-y="38"
     inkscape:window-maximized="0"
     inkscape:current-layer="svg4" />
  <!-- Font Awesome Pro 5.15.4 by @fontawesome - https://fontawesome.com License - https://fontawesome.com/license (Commercial License) -->
  <path
     d="M 622.34,118.48814 343.4,32.788136 c -15.2,-4.67 -31.6,-4.67 -46.79,0 L 17.66,118.48814 c -23.54,7.23 -23.54,38.36 0,45.59 l 48.63,14.94 c -10.67,13.19 -17.23,29.28 -17.88,46.9 -9.63,5.52 -16.41,15.48 -16.41,27.37 0,10.78 5.68,19.85 13.86,25.65 l -25.53,114.88 c -2.22,9.99 5.38,19.47 15.61,19.47 h 56.11 c 10.24,0 17.84,-9.48 15.62,-19.47 l -25.53,-114.88 c 8.18,-5.8 13.86,-14.87 13.86,-25.65 0,-11.57 -6.47,-21.25 -15.66,-26.87 0.76,-15.02 8.44,-28.3 20.69,-36.72 l 195.57,60.09 c 9.06,2.78 26.44,6.25 46.79,0 l 278.95,-85.7 c 23.55,-7.24 23.55,-38.36 0,-45.6 z m -269.55,161.89 c -28.53,8.76 -52.84,3.92 -65.59,0 l -145.02,-44.55 -14.18,113.46 c 0,35.35 85.96,64 192,64 106.04,0 192,-28.65 192,-64 l -14.18,-113.47 z"
     id="path2"
     style="fill:#074161;fill-opacity:1" />
  <text
     xml:space="preserve"
     style="font-style:normal;font-variant:normal;font-weight:normal;font-stretch:normal;font-size:125.485px;font-family:Roboto;-inkscape-font-specification:'Roboto, Normal';font-variant-ligatures:normal;font-variant-caps:normal;font-variant-numeric:normal;font-variant-east-asian:normal;opacity:1;fill:#ffffff;fill-opacity:1;stroke-width:53.7117;stroke-linecap:square"
     x="178.18977"
     y="170.9306"
     id="text899"
     inkscape:export-filename="128.png"
     inkscape:export-xdpi="19.200075"
     inkscape:export-ydpi="19.200075"><tspan
       sodipodi:role="line"
       id="tspan897"
       x="178.18977"
       y="170.9306"
       style="font-style:normal;font-variant:normal;font-weight:normal;font-stretch:normal;font-size:125.485px;font-family:Roboto;-inkscape-font-specification:'Roboto, Normal';font-variant-ligatures:normal;font-variant-caps:normal;font-variant-numeric:normal;font-variant-east-asian:normal;fill:#ffffff;fill-opacity:1;stroke-width:53.7117">jzenn</tspan></text>
</svg>
