<?xml version="1.0" encoding="UTF-8" standalone="no"?>
<svg
   width="1024"
   height="1024"
   viewBox="0 0 1024 1024"
   fill="none"
   version="1.1"
   id="svg1"
   sodipodi:docname="bluesky_media_kit_logo_svgs_white.svg"
   inkscape:version="1.3.2 (091e20e, 2023-11-25)"
   xmlns:inkscape="http://www.inkscape.org/namespaces/inkscape"
   xmlns:sodipodi="http://sodipodi.sourceforge.net/DTD/sodipodi-0.dtd"
   xmlns="http://www.w3.org/2000/svg"
   xmlns:svg="http://www.w3.org/2000/svg">
  <defs
     id="defs1" />
  <sodipodi:namedview
     id="namedview1"
     pagecolor="#ffffff"
     bordercolor="#000000"
     borderopacity="0.25"
     inkscape:showpageshadow="2"
     inkscape:pageopacity="0.0"
     inkscape:pagecheckerboard="0"
     inkscape:deskcolor="#d1d1d1"
     inkscape:zoom="0.4296875"
     inkscape:cx="512"
     inkscape:cy="510.83636"
     inkscape:window-width="1392"
     inkscape:window-height="1212"
     inkscape:window-x="975"
     inkscape:window-y="36"
     inkscape:window-maximized="0"
     inkscape:current-layer="svg1" />
  <path
     d="M351.121 315.106C416.241 363.994 486.281 463.123 512 516.315C537.719 463.123 607.759 363.994 672.879 315.106C719.866 279.83 796 252.536 796 339.388C796 356.734 786.055 485.101 780.222 505.943C759.947 578.396 686.067 596.876 620.347 585.691C735.222 605.242 764.444 670.002 701.333 734.762C581.473 857.754 529.061 703.903 515.631 664.481C513.169 657.254 512.017 653.873 512 656.748C511.983 653.873 510.831 657.254 508.369 664.481C494.939 703.903 442.527 857.754 322.667 734.762C259.556 670.002 288.778 605.242 403.653 585.691C337.933 596.876 264.053 578.396 243.778 505.943C237.945 485.101 228 356.734 228 339.388C228 252.536 304.134 279.83 351.121 315.106Z"
     fill="#1185FE"
     id="path1"
     style="fill:#ffffff" />
</svg>
